<?xml version="1.0" standalone="no"?>
<!DOCTYPE svg PUBLIC "-//W3C//DTD SVG 20010904//EN"
 "http://www.w3.org/TR/2001/REC-SVG-20010904/DTD/svg10.dtd">
<svg version="1.0" xmlns="http://www.w3.org/2000/svg"
 width="686.000000pt" height="186.000000pt" viewBox="0 0 686.000000 186.000000"
 preserveAspectRatio="xMidYMid meet">

<g transform="translate(0.000000,186.000000) scale(0.100000,-0.100000)"
fill="#000000" stroke="none">
<path d="M4320 1196 c0 -627 -1 -619 67 -688 46 -47 136 -74 221 -65 97 10 96
9 89 97 -3 42 -9 83 -12 91 -3 9 -27 19 -58 25 l-52 9 -6 200 c-4 110 -7 356
-8 548 l-1 347 -120 0 -120 0 0 -564z"/>
<path d="M4850 1199 c0 -406 3 -573 12 -602 6 -21 30 -59 52 -83 34 -37 52
-47 106 -60 42 -11 84 -14 121 -11 94 10 93 9 86 97 -3 42 -9 83 -12 91 -3 9
-27 19 -58 25 l-52 9 -6 200 c-4 110 -7 356 -8 548 l-1 347 -120 0 -120 0 0
-561z"/>
<path d="M6380 1217 c0 -589 2 -610 55 -686 46 -67 141 -100 247 -87 81 10 81
10 73 115 l-8 91 -37 0 c-21 0 -47 8 -59 18 -21 17 -22 22 -28 555 l-6 537
-119 0 -118 0 0 -543z"/>
<path d="M50 755 l0 -665 135 0 135 0 0 665 0 665 -135 0 -135 0 0 -665z"/>
<path d="M925 1382 c-23 -11 -59 -40 -82 -66 -22 -25 -43 -46 -47 -46 -3 0 -6
27 -6 60 l0 60 -120 0 -120 0 0 -650 0 -650 120 0 120 0 0 235 c0 129 4 235 8
235 5 0 18 -13 30 -30 13 -16 46 -42 75 -57 48 -26 61 -28 162 -28 101 0 114
2 163 28 96 51 166 143 197 262 18 71 21 298 4 377 -25 119 -93 214 -187 260
-66 32 -256 38 -317 10z m131 -183 c32 -8 55 -23 83 -55 52 -59 64 -109 60
-241 -4 -92 -8 -116 -29 -158 -37 -70 -91 -98 -186 -93 -87 4 -134 32 -167 98
-30 61 -37 222 -12 305 35 121 128 175 251 144z"/>
<path d="M1830 1382 c-107 -28 -210 -102 -210 -151 0 -20 67 -119 91 -134 13
-8 26 -2 60 26 60 52 133 77 223 77 90 0 126 -21 126 -74 0 -57 -31 -73 -204
-110 -236 -50 -314 -115 -324 -271 -6 -92 15 -157 69 -219 54 -61 144 -91 252
-84 87 6 125 24 195 91 42 42 52 47 52 31 0 -21 49 -73 87 -93 27 -14 188 -15
214 -1 16 9 19 22 19 73 0 95 -5 104 -56 112 -25 3 -47 12 -49 18 -2 7 -8 129
-13 273 -8 255 -9 262 -35 316 -31 63 -79 101 -153 124 -67 20 -260 18 -344
-4z m300 -550 c0 -80 -3 -92 -29 -133 -57 -91 -171 -107 -248 -36 -19 17 -23
31 -23 77 0 78 29 105 140 131 45 11 94 26 108 34 49 26 52 22 52 -73z"/>
<path d="M2994 1376 c-29 -13 -65 -42 -86 -67 l-37 -43 -7 62 -7 62 -113 0
-114 0 0 -465 0 -465 118 0 119 0 6 279 c7 311 12 337 73 390 40 36 83 45 170
38 l64 -5 9 37 c40 150 38 175 -17 190 -60 17 -123 13 -178 -13z"/>
<path d="M3541 1384 c-74 -20 -166 -70 -201 -111 -17 -19 -30 -38 -30 -42 0
-19 86 -136 102 -139 9 -2 38 14 65 34 75 58 125 76 213 78 96 1 120 -14 120
-79 0 -24 -6 -47 -12 -53 -15 -12 -122 -43 -231 -67 -146 -32 -239 -97 -266
-184 -6 -21 -11 -69 -11 -107 0 -167 116 -274 296 -274 91 0 163 30 214 88 38
43 42 46 53 28 30 -47 53 -69 83 -82 39 -16 196 -19 225 -4 22 12 25 52 8 129
-10 49 -11 50 -53 56 l-43 7 -7 246 c-9 301 -18 345 -87 414 -63 63 -117 78
-268 77 -68 0 -138 -6 -170 -15z m289 -557 c0 -93 0 -94 -36 -135 -45 -53 -81
-72 -134 -72 -84 0 -130 45 -130 126 0 73 25 95 148 129 54 14 104 30 112 36
35 21 40 11 40 -84z"/>
<path d="M5615 1380 c-118 -39 -216 -142 -255 -268 -25 -80 -27 -256 -5 -351
51 -214 224 -330 474 -319 135 7 196 32 283 117 40 39 68 75 68 87 0 27 -31
54 -104 93 l-59 31 -47 -49 c-27 -28 -59 -51 -76 -54 -80 -16 -114 -17 -159
-7 -69 15 -110 58 -135 138 -11 35 -20 66 -20 68 0 2 136 5 303 6 l302 3 0
130 c-1 98 -5 143 -19 182 -23 70 -92 145 -164 180 -52 25 -68 28 -192 30
-112 2 -145 0 -195 -17z m286 -195 c37 -35 68 -98 69 -137 l0 -28 -196 0
c-181 0 -195 1 -190 18 3 9 10 37 16 61 22 84 86 123 197 118 64 -2 75 -6 104
-32z"/>
</g>
</svg>
